<svg width="600" height="301" viewBox="0 0 600 301" fill="none" xmlns="http://www.w3.org/2000/svg">
<path d="M499.314 294.376C495.327 294.376 491.45 294.051 487.681 293.401C483.984 292.752 480.686 291.633 477.787 290.045C474.888 288.386 472.568 286.184 470.829 283.442C469.161 280.627 468.328 277.055 468.328 272.725C468.328 272.364 468.328 272.075 468.328 271.859C468.328 271.57 468.364 271.173 468.437 270.668H474.416C474.344 271.029 474.271 271.498 474.199 272.075C474.199 272.581 474.199 273.05 474.199 273.483C474.199 277.019 475.286 279.978 477.461 282.359C479.635 284.669 482.534 286.401 486.158 287.556C489.855 288.638 493.878 289.179 498.227 289.179C499.169 289.179 500.619 289.107 502.576 288.963C504.533 288.819 506.635 288.494 508.882 287.989C511.201 287.411 513.375 286.581 515.405 285.499C517.507 284.416 519.21 282.973 520.515 281.169C521.892 279.292 522.581 276.911 522.581 274.024C522.581 271.137 521.82 268.756 520.297 266.879C518.848 264.931 516.891 263.343 514.426 262.116C511.962 260.889 509.171 259.843 506.055 258.977C502.938 258.039 499.713 257.172 496.378 256.379C493.044 255.585 489.819 254.719 486.702 253.781C483.585 252.77 480.795 251.543 478.33 250.1C475.866 248.657 473.873 246.816 472.351 244.579C470.901 242.342 470.176 239.599 470.176 236.352C470.176 233.754 470.684 231.3 471.698 228.99C472.713 226.681 474.344 224.696 476.591 223.037C478.838 221.304 481.81 219.969 485.506 219.031C489.275 218.021 493.878 217.516 499.314 217.516C503.083 217.516 506.562 217.913 509.751 218.706C513.013 219.5 515.876 220.727 518.34 222.387C520.805 223.975 522.726 226.032 524.103 228.557C525.48 231.083 526.168 234.114 526.168 237.651V238.95H520.297V236.676C520.297 233.79 519.391 231.336 517.579 229.315C515.767 227.222 513.339 225.599 510.295 224.444C507.251 223.289 503.844 222.712 500.075 222.712C494.421 222.712 489.819 223.289 486.267 224.444C482.788 225.599 480.215 227.15 478.548 229.099C476.953 230.975 476.156 233.068 476.156 235.377C476.156 238.12 476.881 240.393 478.33 242.197C479.853 244.002 481.846 245.481 484.31 246.636C486.847 247.791 489.674 248.801 492.791 249.667C495.907 250.533 499.096 251.363 502.358 252.157C505.692 252.951 508.918 253.853 512.035 254.863C515.151 255.873 517.942 257.136 520.406 258.652C522.943 260.167 524.936 262.08 526.386 264.389C527.908 266.699 528.669 269.549 528.669 272.941C528.669 277.849 527.401 281.89 524.864 285.066C522.399 288.241 518.957 290.587 514.535 292.102C510.186 293.618 505.112 294.376 499.314 294.376Z" fill="white"/>
<path d="M398.479 293.072V218.811H434.466C438.96 218.811 442.729 219.532 445.773 220.976C448.89 222.347 451.246 224.368 452.84 227.038C454.435 229.636 455.232 232.775 455.232 236.456C455.232 239.27 454.761 241.905 453.819 244.358C452.876 246.74 451.536 248.761 449.796 250.421C448.056 252.08 445.991 253.307 443.599 254.101V254.534C446.063 255.112 448.31 256.086 450.34 257.457C452.442 258.828 454.109 260.777 455.341 263.303C456.646 265.756 457.298 269.004 457.298 273.046C457.298 278.097 456.319 282.103 454.362 285.062C452.405 287.948 449.723 290.005 446.317 291.232C442.91 292.459 438.96 293.072 434.466 293.072H398.479ZM404.35 287.876H436.206C440.772 287.876 444.432 286.758 447.187 284.52C450.013 282.283 451.427 278.35 451.427 272.721C451.427 269.112 450.811 266.189 449.579 263.952C448.346 261.715 446.534 260.091 444.142 259.081C441.823 258.07 438.96 257.565 435.553 257.565H404.35V287.876ZM404.35 252.369H434.357C437.184 252.369 439.721 251.792 441.968 250.637C444.215 249.41 445.991 247.714 447.295 245.549C448.673 243.312 449.361 240.714 449.361 237.755C449.361 233.064 448.056 229.6 445.447 227.363C442.91 225.125 439.54 224.007 435.336 224.007H404.35V252.369Z" fill="white"/>
<path d="M319.286 293.072L349.294 218.811H357.774L387.782 293.072H381.476L372.778 271.638H333.855L325.266 293.072H319.286ZM336.029 266.442H370.603L359.731 239.487C359.514 238.91 359.187 238.044 358.753 236.889C358.318 235.734 357.81 234.399 357.23 232.883C356.651 231.368 356.034 229.816 355.382 228.229C354.802 226.641 354.259 225.161 353.751 223.79H352.882C352.374 225.161 351.758 226.785 351.033 228.662C350.308 230.538 349.584 232.45 348.859 234.399C348.134 236.275 347.482 237.971 346.902 239.487L336.029 266.442Z" fill="white"/>
<path d="M276.004 293.072V218.811H281.875V287.876H318.623V293.072H276.004Z" fill="white"/>
<path d="M558.907 208.582V130.048H535.466V114.396H599.999V130.048H576.558V208.582H558.907Z" fill="white"/>
<path d="M462.548 208.582V114.396H478.13L507.363 166.295C507.915 167.027 508.512 168.125 509.156 169.59C509.799 170.963 510.351 172.244 510.811 173.434C511.362 174.533 511.638 175.082 511.638 175.082L512.052 174.67C512.052 174.67 512.052 174.121 512.052 173.022C512.052 171.924 512.006 170.734 511.914 169.453C511.914 168.171 511.914 167.302 511.914 166.844V114.396H527.634V208.582H511.914L482.681 156.684C482.313 156.043 481.761 155.036 481.026 153.663C480.382 152.199 479.785 150.872 479.233 149.682C478.682 148.492 478.406 147.897 478.406 147.897L477.854 148.309C477.854 148.309 477.854 148.812 477.854 149.819C477.946 150.734 477.992 151.833 477.992 153.114C478.084 154.304 478.13 155.311 478.13 156.135V208.582H462.548Z" fill="white"/>
<path d="M432.552 208.582V114.396H450.202V208.582H432.552Z" fill="white"/>
<path d="M384.469 210.229C372.243 210.229 362.636 206.247 355.65 198.284C348.663 190.321 345.17 178.056 345.17 161.489C345.17 144.83 348.663 132.565 355.65 124.693C362.636 116.73 372.243 112.748 384.469 112.748C396.696 112.748 406.302 116.73 413.289 124.693C420.275 132.565 423.768 144.83 423.768 161.489C423.768 178.056 420.275 190.321 413.289 198.284C406.302 206.247 396.696 210.229 384.469 210.229ZM384.469 195.126C391.548 195.126 396.833 192.472 400.327 187.163C403.82 181.763 405.567 174.349 405.567 164.921V158.056C405.567 148.628 403.82 141.26 400.327 135.951C396.833 130.551 391.548 127.851 384.469 127.851C377.482 127.851 372.197 130.551 368.611 135.951C365.118 141.26 363.371 148.628 363.371 158.056V164.921C363.371 174.349 365.118 181.763 368.611 187.163C372.197 192.472 377.482 195.126 384.469 195.126Z" fill="white"/>
<path d="M276.103 208.582V114.396H309.886C316.413 114.396 321.883 115.632 326.296 118.104C330.708 120.483 334.018 123.824 336.224 128.126C338.43 132.337 339.533 137.188 339.533 142.68C339.533 148.538 338.292 153.709 335.81 158.194C333.328 162.588 329.881 166.02 325.468 168.492C321.056 170.871 315.862 172.061 309.886 172.061H293.753V208.582H276.103ZM293.753 156.547H308.094C312.414 156.547 315.678 155.311 317.884 152.84C320.182 150.368 321.332 146.982 321.332 142.68C321.332 138.835 320.182 135.769 317.884 133.481C315.586 131.192 312.323 130.048 308.094 130.048H293.753V156.547Z" fill="white"/>
<path d="M439.874 105.615L419.328 11.4297H436.84L448.147 69.3691C448.423 70.742 448.699 72.4811 448.975 74.5863C449.251 76.6 449.48 78.4307 449.664 80.0782C449.848 81.7258 449.94 82.5496 449.94 82.5496H450.492C450.492 82.5496 450.584 81.7258 450.767 80.0782C450.951 78.4307 451.181 76.5543 451.457 74.449C451.733 72.3438 452.008 70.6505 452.284 69.3691L463.729 11.4297H483.724L495.031 69.3691C495.307 70.559 495.582 72.2065 495.858 74.3117C496.134 76.417 496.364 78.3391 496.548 80.0782C496.732 81.7258 496.823 82.5496 496.823 82.5496H497.375C497.375 82.5496 497.467 81.7716 497.651 80.2155C497.835 78.6595 498.064 76.8746 498.34 74.8609C498.616 72.7557 498.892 70.9251 499.168 69.3691L510.751 11.4297H525.919L505.373 105.615H487.585L474.761 45.6167C474.485 44.4268 474.209 43.0995 473.933 41.635C473.749 40.079 473.566 38.6145 473.382 37.2415C473.198 35.777 473.06 34.5871 472.968 33.6718C472.876 32.7565 472.83 32.2988 472.83 32.2988H472.279C472.279 32.2988 472.187 32.8023 472.003 33.8091C471.911 34.816 471.773 36.0516 471.589 37.5161C471.405 38.9806 471.175 40.4451 470.9 41.9096C470.716 43.3741 470.532 44.6098 470.348 45.6167L457.662 105.615H439.874Z" fill="white"/>
<path d="M354.95 105.615V11.4297H415.209V27.0816H372.6V49.5983H409.141V65.2501H372.6V89.9636H416.036V105.615H354.95Z" fill="white"/>
<path d="M276.103 105.615V11.4297H306.853C318.62 11.4297 327.858 15.274 334.569 22.9626C341.372 30.5597 344.773 41.9554 344.773 57.1496C344.773 73.2591 341.372 85.387 334.569 93.5333C327.858 101.588 318.62 105.615 306.853 105.615H276.103ZM293.753 89.9636H305.198C311.725 89.9636 316.919 87.538 320.78 82.6869C324.641 77.7442 326.571 70.3759 326.571 60.582V53.7172C326.571 44.8386 324.641 38.2026 320.78 33.8091C316.919 29.3241 311.725 27.0816 305.198 27.0816H293.753V89.9636Z" fill="white"/>
<path fill-rule="evenodd" clip-rule="evenodd" d="M122.582 4.96604C122.787 5.17358 123.079 5.47016 123.45 5.85044C124.199 6.62044 125.281 7.73848 126.64 9.17661C129.356 12.0511 133.195 16.2156 137.791 21.4447C146.974 31.8935 159.255 46.6972 171.553 64.1022C195.567 98.0884 222.026 145.187 222.026 190.092C222.026 252.69 172.191 300.997 111.013 300.997C49.8356 300.997 0 252.69 0 190.092C0.000319907 149.344 21.7877 106.788 43.7646 73.8641L58.2943 85.5057L71.1101 69.4653C71.3367 69.1777 71.659 68.7693 72.0677 68.2431C72.8956 67.1773 74.0891 65.631 75.5834 63.6458C78.5694 59.6786 82.7765 53.9422 87.7796 46.7726C96.1462 34.7827 106.789 18.6788 117.608 0L122.582 4.96604ZM108.055 42.3635C99.3982 52.2136 87.8865 66.1329 76.399 82.3909C52.8368 115.739 31.7184 155.78 31.7181 190.092C31.7181 234.926 67.0871 269.311 111.013 269.311C154.939 269.311 190.308 234.926 190.308 190.092C190.308 155.779 169.19 115.739 145.627 82.3909C134.14 66.1329 122.628 52.2136 113.971 42.3635C112.949 41.1998 111.949 40.0977 111.013 39.0528C110.077 40.0978 109.078 41.1998 108.055 42.3635Z" fill="url(#paint0_linear_188_1341)"/>
<defs>
<linearGradient id="paint0_linear_188_1341" x1="54.2443" y1="63.3673" x2="110.779" y2="304.679" gradientUnits="userSpaceOnUse">
<stop stop-color="#F79F55"/>
<stop offset="0.272075" stop-color="#C25A4F"/>
<stop offset="0.552885" stop-color="#624572"/>
<stop offset="1" stop-color="#4B41D5"/>
</linearGradient>
</defs>
</svg>
