<svg width="236" height="308" viewBox="0 0 236 308" fill="none" xmlns="http://www.w3.org/2000/svg">
<path fill-rule="evenodd" clip-rule="evenodd" d="M130.89 0.442889C131.685 1.24422 132.833 2.40876 134.274 3.90571C137.153 6.89716 141.222 11.2326 146.095 16.6744C155.832 27.5478 168.853 42.9519 181.892 61.0642C207.353 96.4329 235.407 145.449 235.407 192.18C235.407 257.324 182.569 307.595 117.704 307.595C52.8387 307.595 0.000102675 257.324 0 192.18C0 149.443 23.4636 104.797 46.9491 70.4245L61.875 83.6645L83.5556 59.2383C83.9393 58.8 84.4863 58.1784 85.1789 57.3761C86.5818 55.7512 88.6032 53.3925 91.14 50.3624C96.2099 44.3065 103.365 35.5422 111.903 24.5661C117.539 17.3204 123.786 9.0826 130.443 0C130.576 0.133113 130.727 0.278961 130.89 0.442889ZM108.196 56.8659C108.049 57.0161 107.84 57.2302 107.576 57.5056C107.039 58.0632 106.265 58.8726 105.293 59.9143C103.35 61.9963 100.604 65.0129 97.3156 68.8005C90.7463 76.3684 81.961 87.0904 73.1638 99.6965C55.9858 124.312 37.0588 158.426 37.0588 190.95C37.0591 236.289 72.7079 271.276 116.471 271.276C160.233 271.276 195.882 236.289 195.882 190.95C195.882 158.426 176.955 124.312 159.777 99.6965C150.98 87.0904 142.195 76.3684 135.626 68.8005C132.338 65.0129 129.591 61.9963 127.648 59.9143C126.676 58.8726 125.902 58.0632 125.366 57.5056C125.101 57.2302 124.892 57.0161 124.745 56.8659L116.471 48.495L108.196 56.8659Z" fill="url(#paint0_linear_533_530)"/>
<defs>
<linearGradient id="paint0_linear_533_530" x1="57.5134" y1="64.7563" x2="113.405" y2="312.272" gradientUnits="userSpaceOnUse">
<stop stop-color="#F79F55"/>
<stop offset="0.272075" stop-color="#C25A4F"/>
<stop offset="0.552885" stop-color="#624572"/>
<stop offset="1" stop-color="#4B41D5"/>
</linearGradient>
</defs>
</svg>
