<svg width="607" height="307" viewBox="0 0 607 307" fill="none" xmlns="http://www.w3.org/2000/svg">
<path d="M505.831 296.987C501.845 296.987 497.967 296.662 494.198 296.013C490.502 295.363 487.204 294.244 484.304 292.657C481.405 290.997 479.086 288.796 477.346 286.053C475.679 283.239 474.845 279.666 474.845 275.336C474.845 274.975 474.845 274.687 474.845 274.47C474.845 274.182 474.882 273.785 474.954 273.279H480.934C480.861 273.64 480.789 274.109 480.716 274.687C480.716 275.192 480.716 275.661 480.716 276.094C480.716 279.63 481.804 282.589 483.978 284.971C486.153 287.28 489.052 289.012 492.676 290.167C496.373 291.249 500.395 291.791 504.744 291.791C505.687 291.791 507.136 291.719 509.093 291.574C511.05 291.43 513.152 291.105 515.399 290.6C517.719 290.023 519.893 289.193 521.922 288.11C524.024 287.028 525.728 285.584 527.032 283.78C528.41 281.904 529.098 279.522 529.098 276.635C529.098 273.749 528.337 271.367 526.815 269.491C525.365 267.542 523.408 265.954 520.944 264.727C518.48 263.501 515.689 262.454 512.572 261.588C509.456 260.65 506.23 259.784 502.896 258.99C499.562 258.196 496.336 257.33 493.22 256.392C490.103 255.382 487.312 254.155 484.848 252.711C482.384 251.268 480.39 249.428 478.868 247.19C477.419 244.953 476.694 242.211 476.694 238.963C476.694 236.365 477.201 233.911 478.216 231.602C479.231 229.292 480.861 227.308 483.108 225.648C485.355 223.916 488.327 222.581 492.024 221.643C495.793 220.632 500.395 220.127 505.831 220.127C509.601 220.127 513.08 220.524 516.269 221.318C519.531 222.112 522.394 223.338 524.858 224.998C527.322 226.586 529.243 228.643 530.62 231.169C531.997 233.695 532.686 236.726 532.686 240.262V241.561H526.815V239.288C526.815 236.401 525.909 233.947 524.097 231.927C522.285 229.834 519.857 228.21 516.813 227.055C513.768 225.9 510.362 225.323 506.593 225.323C500.939 225.323 496.336 225.9 492.785 227.055C489.306 228.21 486.733 229.762 485.065 231.71C483.471 233.586 482.674 235.679 482.674 237.989C482.674 240.731 483.398 243.005 484.848 244.809C486.37 246.613 488.363 248.092 490.828 249.247C493.365 250.402 496.191 251.412 499.308 252.278C502.425 253.144 505.614 253.974 508.876 254.768C512.21 255.562 515.435 256.464 518.552 257.474C521.669 258.485 524.459 259.748 526.924 261.263C529.461 262.779 531.454 264.691 532.904 267.001C534.426 269.31 535.187 272.161 535.187 275.553C535.187 280.46 533.918 284.502 531.381 287.677C528.917 290.853 525.474 293.198 521.053 294.714C516.704 296.229 511.63 296.987 505.831 296.987Z" fill="white"/>
<path d="M404.996 295.684V221.422H440.984C445.477 221.422 449.247 222.144 452.291 223.587C455.408 224.958 457.763 226.979 459.358 229.649C460.952 232.247 461.75 235.387 461.75 239.067C461.75 241.882 461.279 244.516 460.336 246.97C459.394 249.351 458.053 251.372 456.314 253.032C454.574 254.692 452.508 255.919 450.116 256.713V257.146C452.581 257.723 454.828 258.697 456.857 260.068C458.959 261.44 460.626 263.388 461.858 265.914C463.163 268.368 463.815 271.615 463.815 275.657C463.815 280.709 462.837 284.714 460.88 287.673C458.923 290.56 456.241 292.617 452.834 293.843C449.428 295.07 445.477 295.684 440.984 295.684H404.996ZM410.867 290.488H442.723C447.29 290.488 450.95 289.369 453.704 287.132C456.531 284.894 457.944 280.961 457.944 275.332C457.944 271.724 457.328 268.801 456.096 266.564C454.864 264.326 453.052 262.703 450.66 261.692C448.341 260.682 445.477 260.177 442.071 260.177H410.867V290.488ZM410.867 254.98H440.875C443.702 254.98 446.239 254.403 448.486 253.248C450.732 252.022 452.508 250.326 453.813 248.16C455.19 245.923 455.879 243.325 455.879 240.366C455.879 235.675 454.574 232.211 451.965 229.974C449.428 227.737 446.057 226.618 441.853 226.618H410.867V254.98Z" fill="white"/>
<path d="M325.804 295.684L355.811 221.422H364.292L394.299 295.684H387.993L379.295 274.25H340.373L331.783 295.684H325.804ZM342.547 269.053H377.121L366.249 242.098C366.031 241.521 365.705 240.655 365.27 239.5C364.835 238.346 364.328 237.01 363.748 235.495C363.168 233.979 362.552 232.428 361.9 230.84C361.32 229.252 360.776 227.773 360.269 226.402H359.399C358.892 227.773 358.276 229.397 357.551 231.273C356.826 233.149 356.101 235.062 355.376 237.01C354.652 238.887 353.999 240.583 353.419 242.098L342.547 269.053Z" fill="white"/>
<path d="M282.521 295.684V221.422H288.393V290.488H325.141V295.684H282.521Z" fill="white"/>
<path d="M565.425 211.194V132.66H541.983V117.008H606.517V132.66H583.075V211.194H565.425Z" fill="white"/>
<path d="M469.066 211.194V117.008H484.648L513.881 168.906C514.433 169.638 515.03 170.737 515.674 172.201C516.317 173.574 516.869 174.856 517.328 176.046C517.88 177.144 518.156 177.693 518.156 177.693L518.569 177.281C518.569 177.281 518.569 176.732 518.569 175.634C518.569 174.535 518.523 173.345 518.431 172.064C518.431 170.783 518.431 169.913 518.431 169.455V117.008H534.151V211.194H518.431L489.198 159.295C488.83 158.655 488.279 157.648 487.543 156.275C486.9 154.81 486.302 153.483 485.751 152.293C485.199 151.103 484.924 150.508 484.924 150.508L484.372 150.92C484.372 150.92 484.372 151.424 484.372 152.43C484.464 153.346 484.51 154.444 484.51 155.726C484.602 156.915 484.648 157.922 484.648 158.746V211.194H469.066Z" fill="white"/>
<path d="M439.069 211.194V117.008H456.72V211.194H439.069Z" fill="white"/>
<path d="M390.987 212.84C378.76 212.84 369.154 208.859 362.167 200.895C355.181 192.932 351.687 180.667 351.687 164.1C351.687 147.441 355.181 135.176 362.167 127.304C369.154 119.341 378.76 115.359 390.987 115.359C403.213 115.359 412.82 119.341 419.806 127.304C426.793 135.176 430.286 147.441 430.286 164.1C430.286 180.667 426.793 192.932 419.806 200.895C412.82 208.859 403.213 212.84 390.987 212.84ZM390.987 197.738C398.065 197.738 403.351 195.083 406.844 189.774C410.338 184.374 412.084 176.96 412.084 167.532V160.667C412.084 151.24 410.338 143.871 406.844 138.563C403.351 133.162 398.065 130.462 390.987 130.462C384 130.462 378.714 133.162 375.129 138.563C371.636 143.871 369.889 151.24 369.889 160.667V167.532C369.889 176.96 371.636 184.374 375.129 189.774C378.714 195.083 384 197.738 390.987 197.738Z" fill="white"/>
<path d="M282.62 211.194V117.008H316.404C322.931 117.008 328.401 118.243 332.813 120.715C337.226 123.095 340.535 126.436 342.741 130.738C344.948 134.948 346.051 139.799 346.051 145.291C346.051 151.149 344.81 156.321 342.328 160.806C339.846 165.199 336.398 168.632 331.986 171.103C327.573 173.483 322.379 174.673 316.404 174.673H300.271V211.194H282.62ZM300.271 159.158H314.611C318.932 159.158 322.196 157.922 324.402 155.451C326.7 152.98 327.849 149.593 327.849 145.291C327.849 141.447 326.7 138.38 324.402 136.092C322.104 133.804 318.84 132.66 314.611 132.66H300.271V159.158Z" fill="white"/>
<path d="M446.391 108.227L425.845 14.041H443.358L454.665 71.9804C454.941 73.3534 455.217 75.0924 455.492 77.1977C455.768 79.2114 455.998 81.042 456.182 82.6896C456.366 84.3371 456.458 85.1609 456.458 85.1609H457.009C457.009 85.1609 457.101 84.3371 457.285 82.6896C457.469 81.042 457.699 79.1656 457.974 77.0604C458.25 74.9552 458.526 73.2618 458.802 71.9804L470.247 14.041H490.241L501.548 71.9804C501.824 73.1703 502.1 74.8179 502.376 76.9231C502.652 79.0283 502.881 80.9505 503.065 82.6896C503.249 84.3371 503.341 85.1609 503.341 85.1609H503.893C503.893 85.1609 503.985 84.3829 504.168 82.8269C504.352 81.2708 504.582 79.486 504.858 77.4723C505.134 75.367 505.409 73.5364 505.685 71.9804L517.268 14.041H532.436L511.89 108.227H494.102L481.278 48.228C481.002 47.0381 480.727 45.7109 480.451 44.2464C480.267 42.6903 480.083 41.2258 479.899 39.8529C479.715 38.3884 479.578 37.1985 479.486 36.2831C479.394 35.3678 479.348 34.9102 479.348 34.9102H478.796C478.796 34.9102 478.704 35.4136 478.52 36.4204C478.428 37.4273 478.291 38.663 478.107 40.1275C477.923 41.592 477.693 43.0565 477.417 44.521C477.233 45.9855 477.05 47.2211 476.866 48.228L464.18 108.227H446.391Z" fill="white"/>
<path d="M361.467 108.227V14.041H421.726V29.6929H379.118V52.2096H415.659V67.8615H379.118V92.5749H422.554V108.227H361.467Z" fill="white"/>
<path d="M282.62 108.227V14.041H313.37C325.137 14.041 334.376 17.8853 341.087 25.574C347.889 33.1711 351.291 44.5667 351.291 59.7609C351.291 75.8705 347.889 87.9984 341.087 96.1447C334.376 104.199 325.137 108.227 313.37 108.227H282.62ZM300.271 92.5749H311.716C318.243 92.5749 323.437 90.1494 327.298 85.2982C331.159 80.3555 333.089 72.9872 333.089 63.1934V56.3285C333.089 47.45 331.159 40.8139 327.298 36.4204C323.437 31.9354 318.243 29.6929 311.716 29.6929H300.271V92.5749Z" fill="white"/>
<path fill-rule="evenodd" clip-rule="evenodd" d="M130.698 0.44091C131.492 1.23866 132.638 2.398 134.076 3.88826C136.952 6.86636 141.014 11.1824 145.88 16.5999C155.603 27.4248 168.605 42.7601 181.625 60.7915C207.049 96.0022 235.062 144.799 235.062 191.322C235.062 256.175 182.301 306.221 117.531 306.221C52.7611 306.221 0.000102524 256.175 0 191.322C0 148.776 23.4292 104.329 46.8802 70.1099L61.7841 83.2908L83.4329 58.9737C83.816 58.5374 84.3622 57.9185 85.0539 57.1198C86.4546 55.5022 88.4731 53.154 91.0062 50.1374C96.0687 44.1086 103.213 35.3834 111.739 24.4563C117.366 17.2431 123.604 9.04204 130.251 0C130.384 0.132518 130.535 0.277715 130.698 0.44091ZM108.037 56.6119C107.891 56.7615 107.682 56.9746 107.418 57.2487C106.882 57.8039 106.109 58.6096 105.138 59.6467C103.199 61.7194 100.456 64.7226 97.1727 68.4932C90.6131 76.0273 81.8406 86.7015 73.0563 99.2513C55.9036 123.757 37.0044 157.719 37.0044 190.097C37.0047 235.233 72.6012 270.064 116.3 270.064C159.998 270.064 195.594 235.233 195.595 190.097C195.595 157.719 176.696 123.757 159.543 99.2513C150.759 86.7015 141.986 76.0273 135.426 68.4932C132.143 64.7226 129.401 61.7194 127.461 59.6467C126.49 58.6096 125.717 57.8039 125.182 57.2487C124.917 56.9746 124.708 56.7615 124.562 56.6119L116.3 48.2784L108.037 56.6119Z" fill="url(#paint0_linear_188_1341)"/>
<defs>
<linearGradient id="paint0_linear_188_1341" x1="57.429" y1="64.4671" x2="112.92" y2="310.949" gradientUnits="userSpaceOnUse">
<stop stop-color="#F79F55"/>
<stop offset="0.272075" stop-color="#C25A4F"/>
<stop offset="0.552885" stop-color="#624572"/>
<stop offset="1" stop-color="#4B41D5"/>
</linearGradient>
</defs>
</svg>
